<svg xmlns="http://www.w3.org/2000/svg" viewBox="0 0 559.5 559.5" fill="url(#grad2)"><defs>
    <linearGradient id="grad2" x1="0%" y1="0%" x2="0%" y2="100%">
      <stop offset="0%" style="stop-color:#833FF7;stop-opacity:1" />
      <stop offset="100%" style="stop-color:rgba(131,63,247,0.75);stop-opacity:1" />
    </linearGradient>
  </defs><path d="M354.1 419.2c-21.2 0-41.6-10.4-60.5-30.8 -15.3-16.5-32.2-25.2-50.2-25.6 -33-1-60.8 25.8-61.1 26.1 -5.3 5.2-13.8 5.1-19-0.2 -5.2-5.3-5.2-13.8 0.1-19 1.4-1.4 35.8-34.5 80.4-33.8 25.6 0.6 49 12.1 69.5 34.3 14.7 15.9 29.7 23.3 44.2 22 28-2.5 49.1-34.8 49.3-35.1 4-6.2 12.3-8.1 18.6-4.1 6.2 4 8.1 12.3 4.1 18.6 -1.1 1.8-28.3 43.7-69.5 47.5C358.1 419.1 356.1 419.2 354.1 419.2z"/><path d="M404.1 206.4c0 17.8-14.4 32.2-32.2 32.2 -17.8 0-32.2-14.4-32.2-32.2 0-17.8 14.4-32.2 32.2-32.2C389.7 174.2 404.1 188.6 404.1 206.4z"/><path d="M218.9 206.4c0 17.8-14.4 32.2-32.2 32.2 -17.8 0-32.2-14.4-32.2-32.2 0-17.8 14.4-32.2 32.2-32.2C204.5 174.2 218.9 188.6 218.9 206.4z"/><path d="M279.7 559.5c-154.2 0-279.7-125.5-279.7-279.7C0.1 125.5 125.5 0 279.7 0s279.7 125.5 279.7 279.7C559.4 434 433.9 559.5 279.7 559.5zM279.7 26.9c-139.4 0-252.7 113.4-252.7 252.8s113.4 252.8 252.7 252.8c139.4 0 252.7-113.4 252.7-252.8S419.1 26.9 279.7 26.9z"/></svg>