<?xml version="1.0" encoding="iso-8859-1"?>
<!-- Generator: Adobe Illustrator 19.1.0, SVG Export Plug-In . SVG Version: 6.00 Build 0)  -->
<svg version="1.1" id="Capa_1" xmlns="http://www.w3.org/2000/svg" xmlns:xlink="http://www.w3.org/1999/xlink" x="0px" y="0px"
	 viewBox="0 0 559.464 559.464" style="enable-background:new 0 0 559.464 559.464;" xml:space="preserve">
<g>
	<g>
		<g id="group-10svg">
			<path id="path-1" d="M354.108,419.16c-21.244,0-41.59-10.362-60.544-30.842c-15.318-16.548-32.198-25.168-50.183-25.617
				c-33.042-1.024-60.832,25.805-61.11,26.075c-5.307,5.199-13.827,5.118-19.026-0.18c-5.199-5.298-5.154-13.792,0.135-19.008
				c1.437-1.428,35.79-34.515,80.433-33.823c25.608,0.566,49.007,12.095,69.514,34.254c14.734,15.911,29.72,23.282,44.23,22.043
				c28.023-2.46,49.123-34.802,49.339-35.134c4.014-6.249,12.337-8.081,18.595-4.067c6.249,4.005,8.09,12.301,4.112,18.559
				c-1.14,1.787-28.265,43.736-69.523,47.462C358.077,419.061,356.092,419.16,354.108,419.16z"/>
			<path id="path-2" d="M404.093,206.415c0,17.796-14.411,32.216-32.198,32.216c-17.778,0-32.207-14.42-32.207-32.216
				c0-17.787,14.429-32.207,32.207-32.207C389.682,174.208,404.093,188.628,404.093,206.415z"/>
			<path id="path-3" d="M218.94,206.415c0,17.796-14.411,32.216-32.207,32.216c-17.778,0-32.198-14.42-32.198-32.216
				c0-17.787,14.42-32.207,32.198-32.207C204.529,174.208,218.94,188.628,218.94,206.415z"/>
			<path id="path-4" d="M279.736,559.464c-154.212,0-279.673-125.488-279.673-279.727C0.063,125.488,125.524,0,279.736,0
				s279.664,125.488,279.664,279.736C559.401,433.975,433.948,559.464,279.736,559.464z M279.736,26.946
				c-139.361,0-252.737,113.403-252.737,252.791s113.376,252.791,252.737,252.791c139.352,0,252.728-113.403,252.728-252.791
				S419.088,26.946,279.736,26.946z"/>
		</g>
	</g>
</g>
<g>
</g>
<g>
</g>
<g>
</g>
<g>
</g>
<g>
</g>
<g>
</g>
<g>
</g>
<g>
</g>
<g>
</g>
<g>
</g>
<g>
</g>
<g>
</g>
<g>
</g>
<g>
</g>
<g>
</g>
</svg>
