<svg xmlns="http://www.w3.org/2000/svg" viewBox="0 0 559.5 559.5" fill="#833FF7"><path d="M308.5 464.9h-54.1c-67.1 0-121.6-50.4-121.6-112.3 0-7.4 6-13.5 13.5-13.5h270.4c7.4 0 13.5 6 13.5 13.5C430.1 414.6 375.5 464.9 308.5 464.9zM160.9 366.1c7.2 40.7 46.4 71.8 93.5 71.8h54.1c47.1 0 86.3-31.2 93.5-71.8H160.9z"/><path d="M404.1 206.4c0 17.8-14.4 32.2-32.2 32.2 -17.8 0-32.2-14.4-32.2-32.2 0-17.8 14.4-32.2 32.2-32.2C389.7 174.2 404.1 188.6 404.1 206.4z"/><path d="M218.9 206.4c0 17.8-14.4 32.2-32.2 32.2s-32.2-14.4-32.2-32.2c0-17.8 14.4-32.2 32.2-32.2S218.9 188.6 218.9 206.4z"/><path d="M279.7 559.5c-154.2 0-279.7-125.5-279.7-279.7C0.1 125.5 125.5 0 279.7 0s279.7 125.5 279.7 279.7C559.4 434 433.9 559.5 279.7 559.5zM279.7 26.9c-139.4 0-252.7 113.4-252.7 252.8 0 139.4 113.4 252.8 252.7 252.8 139.4 0 252.7-113.4 252.7-252.8C532.5 140.3 419.1 26.9 279.7 26.9z"/></svg>