<?xml version="1.0" encoding="iso-8859-1"?>
<!-- Generator: Adobe Illustrator 19.1.0, SVG Export Plug-In . SVG Version: 6.00 Build 0)  -->
<svg version="1.1" id="Capa_1" xmlns="http://www.w3.org/2000/svg" xmlns:xlink="http://www.w3.org/1999/xlink" x="0px" y="0px"
	 viewBox="0 0 567.419 567.419" style="enable-background:new 0 0 567.419 567.419;" xml:space="preserve">
<g>
	<g>
		<g id="group-3svg">
			<path id="path-1_21_" d="M409.93,209.297c0,18.056-14.627,32.692-32.683,32.692c-18.047,0-32.683-14.636-32.683-32.692
				s14.636-32.683,32.683-32.683C395.303,176.614,409.93,191.241,409.93,209.297z"/>
			<path id="path-2_21_" d="M222.011,209.297c0,18.056-14.636,32.692-32.683,32.692s-32.683-14.636-32.683-32.692
				s14.636-32.683,32.683-32.683S222.011,191.241,222.011,209.297z"/>
			<path id="path-3_21_" d="M172.538,453.621c-7.434,0-13.468-6.025-13.468-13.468c0-58.138,46.762-105.439,104.245-105.439h45.397
				c57.483,0,104.245,47.04,104.245,104.855c0,7.443-6.025,13.477-13.468,13.477c-7.435,0-13.459-6.034-13.459-13.477
				c0-42.955-34.685-77.91-77.317-77.91h-45.397c-42.632,0-77.308,35.206-77.308,78.493
				C186.006,447.596,179.972,453.621,172.538,453.621z"/>
			<path id="path-4_21_" d="M283.714,567.419c-156.403,0-283.642-127.275-283.642-283.714C0.072,127.275,127.311,0,283.714,0
				c156.394,0,283.633,127.275,283.633,283.705C567.347,440.143,440.108,567.419,283.714,567.419z M283.714,26.946
				c-141.552,0-256.705,115.181-256.705,256.759c0,141.588,115.154,256.768,256.705,256.768
				c141.543,0,256.696-115.181,256.696-256.768C540.41,142.126,425.257,26.946,283.714,26.946z"/>
		</g>
	</g>
</g>
<g>
</g>
<g>
</g>
<g>
</g>
<g>
</g>
<g>
</g>
<g>
</g>
<g>
</g>
<g>
</g>
<g>
</g>
<g>
</g>
<g>
</g>
<g>
</g>
<g>
</g>
<g>
</g>
<g>
</g>
</svg>
