<svg xmlns="http://www.w3.org/2000/svg" viewBox="0 0 512 512"><path d="M465.4 48.2h-137.6V24C327.8 10.7 317.1 0 303.9 0h-95.8c-13.2 0-23.9 10.7-23.9 24V48.2H46.6c-6.7 0-12 5.4-12 12 0 6.7 5.4 12 12 12h22.3l15.2 396.4C85.1 493 104.8 512 129.1 512h253.8c24.3 0 44-19 45-43.3l15.2-396.4h22.3c6.7 0 12-5.4 12-12C477.5 53.6 472.1 48.2 465.4 48.2zM208.3 24.1h95.4v24.1h-95.4V24.1zM403.8 467.8c-0.4 11.3-9.6 20.1-20.9 20.1H129.1c-11.3 0-20.4-8.8-20.9-20.1L93 72.3h326L403.8 467.8z"/><path d="M182.6 181.6c-0.1-6.6-5.5-11.8-12-11.8 -0.1 0-0.2 0-0.2 0 -6.7 0.1-11.9 5.6-11.8 12.3l3.8 196.6c0.1 6.6 5.5 11.8 12 11.8 0.1 0 0.2 0 0.2 0 6.7-0.1 11.9-5.6 11.8-12.3L182.6 181.6z"/><path d="M256 169.8c-6.7 0-12 5.4-12 12v196.6c0 6.7 5.4 12 12 12 6.7 0 12-5.4 12-12V181.8C268 175.1 262.7 169.8 256 169.8z"/><path d="M341.6 169.8c-6.6-0.1-12.2 5.2-12.3 11.8l-3.8 196.6c-0.1 6.7 5.2 12.2 11.8 12.3 0.1 0 0.2 0 0.2 0 6.5 0 11.9-5.2 12-11.8l3.8-196.6C353.6 175.4 348.3 169.9 341.6 169.8z"/></svg>