<svg xmlns="http://www.w3.org/2000/svg" viewBox="0 0 567.4 567.4" fill="url(#grad2)"><defs>
    <linearGradient id="grad2" x1="0%" y1="0%" x2="0%" y2="100%">
      <stop offset="0%" style="stop-color:#833FF7;stop-opacity:1" />
      <stop offset="100%" style="stop-color:rgba(131,63,247,0.75);stop-opacity:1" />
    </linearGradient>
  </defs><path d="M409.9 209.3c0 18.1-14.6 32.7-32.7 32.7 -18 0-32.7-14.6-32.7-32.7s14.6-32.7 32.7-32.7C395.3 176.6 409.9 191.2 409.9 209.3z"/><path d="M222 209.3c0 18.1-14.6 32.7-32.7 32.7s-32.7-14.6-32.7-32.7 14.6-32.7 32.7-32.7S222 191.2 222 209.3z"/><path d="M172.5 453.6c-7.4 0-13.5-6-13.5-13.5 0-58.1 46.8-105.4 104.2-105.4h45.4c57.5 0 104.2 47 104.2 104.9 0 7.4-6 13.5-13.5 13.5 -7.4 0-13.5-6-13.5-13.5 0-43-34.7-77.9-77.3-77.9h-45.4c-42.6 0-77.3 35.2-77.3 78.5C186 447.6 180 453.6 172.5 453.6z"/><path d="M283.7 567.4c-156.4 0-283.6-127.3-283.6-283.7C0.1 127.3 127.3 0 283.7 0c156.4 0 283.6 127.3 283.6 283.7C567.3 440.1 440.1 567.4 283.7 567.4zM283.7 26.9c-141.6 0-256.7 115.2-256.7 256.8 0 141.6 115.2 256.8 256.7 256.8 141.5 0 256.7-115.2 256.7-256.8C540.4 142.1 425.3 26.9 283.7 26.9z"/></svg>