<svg xmlns="http://www.w3.org/2000/svg" viewBox="0 0 60 60"><path fill="#FDBD2D" d="M51 20.7c-0.5-9-7.9-16.2-16.9-16.2 -5.4 0-10.7 2.7-13.9 7 -0.1 0-0.2-0.1-0.2-0.1 -0.2-0.1-0.4-0.2-0.6-0.3 -0.1 0-0.2-0.1-0.3-0.1 -0.2-0.1-0.4-0.1-0.6-0.2 -0.1 0-0.2-0.1-0.3-0.1 -0.2-0.1-0.5-0.1-0.7-0.1 -0.1 0-0.2 0-0.3 0C16.7 10.5 16.3 10.5 16 10.5c-5 0-9 4-9 9 0 0.1 0 0.3 0 0.4C2.9 22.1 0 26.9 0 31.7 0 38.7 5.8 44.5 12.8 44.5H18c0.6 0 1-0.4 1-1s-0.4-1-1-1h-5.2C6.9 42.5 2 37.6 2 31.7c0-4.2 2.7-8.5 6.4-10.3L9 21.1V20.5c0-0.1 0-0.2 0-0.4l0-0.2 0-0.2C9 19.7 9 19.6 9 19.5c0-3.9 3.1-7 7-7 0.3 0 0.6 0 0.9 0.1 0.1 0 0.2 0 0.2 0 0.3 0 0.5 0.1 0.8 0.2 0 0 0.1 0 0.1 0 0.3 0.1 0.6 0.2 0.8 0.3 0.1 0 0.1 0.1 0.2 0.1 0.2 0.1 0.5 0.3 0.7 0.4C21.7 14.9 23 17 23 19.5c0 0.6 0.4 1 1 1s1-0.4 1-1c0-2.8-1.2-5.2-3.2-6.9C24.7 8.9 29.4 6.5 34.1 6.5c7.7 0 14.2 6.1 14.8 13.9 -1-0.1-2.6-0.1-4.1 0.1 -0.5 0.1-0.9 0.6-0.8 1.1 0.1 0.5 0.5 0.9 1 0.9 0.1 0 0.1 0 0.2 0 2.2-0.3 4.5 0 4.7 0C54.5 23.4 58 27.7 58 32.5 58 38 53.5 42.5 48 42.5H44c-0.6 0-1 0.4-1 1s0.4 1 1 1h4C54.6 44.5 60 39.1 60 32.5 60 27 56.2 22.1 51 20.7z"/><path fill="#FDBD2D" d="M31.7 30.8c-0.1-0.1-0.2-0.2-0.3-0.2 -0.2-0.1-0.5-0.1-0.8 0 -0.1 0.1-0.2 0.1-0.3 0.2l-8 8c-0.4 0.4-0.4 1 0 1.4C22.5 40.4 22.7 40.5 23 40.5s0.5-0.1 0.7-0.3L30 33.9V54.5c0 0.6 0.4 1 1 1s1-0.4 1-1V33.9l6.3 6.3C38.5 40.4 38.7 40.5 39 40.5s0.5-0.1 0.7-0.3c0.4-0.4 0.4-1 0-1.4L31.7 30.8z"/></svg>
